<?xml version="1.0" standalone="no"?>
<!DOCTYPE svg PUBLIC "-//W3C//DTD SVG 20010904//EN"
 "http://www.w3.org/TR/2001/REC-SVG-20010904/DTD/svg10.dtd">
<svg version="1.0" xmlns="http://www.w3.org/2000/svg"
 width="709.000000pt" height="709.000000pt" viewBox="0 0 709.000000 709.000000"
 preserveAspectRatio="xMidYMid meet">
<metadata>
Created by potrace 1.16, written by Peter Selinger 2001-2019
</metadata>
<g transform="translate(0.000000,709.000000) scale(0.100000,-0.100000)"
fill="#000000" stroke="none">
<path d="M1850 3545 l0 -2395 1690 0 1690 0 0 2395 0 2395 -1690 0 -1690 0 0
-2395z m3070 1055 l0 -1040 -375 0 -375 0 -2 -565 -3 -565 -419 419 -419 419
59 16 c176 49 326 132 451 250 197 186 304 401 333 670 55 507 -277 991 -771
1125 -126 35 -238 41 -746 41 l-493 0 0 135 0 135 1380 0 1380 0 0 -1040z
m-1666 446 c155 -30 274 -94 391 -211 118 -119 181 -237 212 -398 41 -219 -31
-463 -188 -631 -115 -124 -245 -198 -401 -230 -60 -13 -141 -16 -368 -16 -159
0 -290 -3 -290 -8 0 -9 1853 -1862 1863 -1862 4 0 7 351 7 780 l0 780 220 0
220 0 0 -895 0 -895 -1380 0 -1380 0 0 1800 0 1800 509 0 c402 0 525 -3 585
-14z"/>
<path d="M3600 3152 c0 -9 463 -472 473 -472 4 0 7 108 7 240 l0 240 -240 0
c-132 0 -240 -3 -240 -8z"/>
</g>
</svg>
