<svg xmlns="http://www.w3.org/2000/svg">
 
   <symbol id="main-stroke" viewBox="0 0 709 710" stroke-width="200" fill="none" fill-rule="evenodd"  width="100%" height="100%">
      <g transform="translate(-250.0000,900.000000) scale(0.150000,-0.150000)" >
		<path fill="currentColor" d="M1860 3545 l0 -2395 1685 0 1685 0 0 2395 0 2395 -1685 0 -1685 0 0
		-2395z m3070 1055 c0 -572 -3 -1040 -7 -1040 -5 0 -174 -1 -378 -3 l-370 -2
		-5 -568 -5 -567 -425 424 c-273 274 -419 427 -410 430 8 2 49 14 90 26 349
		102 623 386 721 748 27 100 37 312 19 420 -24 153 -96 334 -178 447 -54 75
		-168 190 -243 246 -120 89 -300 164 -451 189 -37 6 -282 10 -595 10 l-533 0 0
		140 0 140 1385 0 1385 0 0 -1040z m-1652 444 c154 -32 316 -129 419 -253 66
		-80 136 -221 157 -318 78 -353 -115 -725 -446 -860 -116 -47 -164 -52 -480
		-54 -164 0 -300 -4 -302 -8 -3 -4 411 -423 920 -932 l924 -924 0 777 0 777
		226 3 c124 2 228 1 230 -1 2 -2 4 -409 4 -903 l0 -898 -1385 0 -1385 0 0 1805
		0 1805 520 0 c436 0 533 -3 598 -16z"/>
		<path fill="#f56f42" d="M3840 2925 c124 -124 226 -225 227 -225 2 0 3 101 3 225 l0 225 -227
		0 -228 0 225 -225z"/>
	  </g>
  </symbol>
</svg>

